<svg width="88" height="56" viewBox="0 0 88 56" fill="none" xmlns="http://www.w3.org/2000/svg">
	<path d="M79.4675 23.7183C78.4151 11.459 68.5883 1.72433 56.2893 0.794495C64.1876 5.04933 69.5578 13.3922 69.5578 22.9915C69.5578 23.2377 69.5275 23.4745 69.5205 23.7183H61.4286L73.9188 39.7938L87.4101 23.7183H79.4675Z" fill="white"/>
	<path d="M18.1808 33.0085C18.1808 32.7355 18.2112 32.4707 18.2205 32.2012H26.5713L14.0823 16.1257L0.589844 32.2012H8.26534C9.28268 44.4978 19.1235 54.2757 31.447 55.2067C23.5498 50.9495 18.1808 42.6078 18.1808 33.0085Z" fill="white"/>
	<path d="M51.5 12H34.5V29H39.5L38 47.25L53.5 26H41.5L51.5 12Z" fill="#77B900"/>
</svg>
